<svg width="298" height="80" viewBox="0 0 298 80" fill="none" xmlns="http://www.w3.org/2000/svg">
<path d="M41.7856 23.5296H50.7935V54.355H70.3133V61.5196H41.7856V23.5296Z" fill="#828282"/>
<path d="M101.203 25.2138C103.742 26.3365 105.699 27.9263 107.071 29.9901C108.443 32.0516 109.129 34.495 109.129 37.3157C109.129 40.1019 108.443 42.5361 107.071 44.616C105.699 46.6958 103.742 48.288 101.203 49.3923C98.6643 50.4967 95.6703 51.0466 92.2213 51.0466H84.3804V61.5219H75.3726V23.5296H92.2213C95.6703 23.5296 98.6619 24.091 101.203 25.2138ZM97.8934 42.1726C99.3008 41.0337 100.006 39.414 100.006 37.3157C100.006 35.1806 99.3008 33.5448 97.8934 32.4036C96.4836 31.2647 94.4256 30.6941 91.7216 30.6941H84.3804V43.882H91.7216C94.4279 43.882 96.4836 43.3137 97.8934 42.1726Z" fill="#828282"/>
<path d="M120.666 61.1192C119.24 60.3531 118.123 59.2993 117.314 57.958C116.503 56.6167 116.1 55.1051 116.1 53.4255C116.1 51.746 116.506 50.2344 117.314 48.893C118.125 47.5517 119.245 46.498 120.681 45.7318C122.114 44.9657 123.717 44.5837 125.49 44.5837C126.874 44.5837 128.14 44.8115 129.285 45.2625C130.433 45.7157 131.412 46.3852 132.22 47.2756L130.575 48.8309C129.243 47.4643 127.579 46.781 125.589 46.781C124.273 46.781 123.083 47.0685 122.02 47.646C120.956 48.2235 120.124 49.0173 119.525 50.0296C118.927 51.0419 118.627 52.1739 118.627 53.4255C118.627 54.6771 118.927 55.8091 119.525 56.8214C120.124 57.8338 120.956 58.6298 122.02 59.205C123.083 59.7825 124.271 60.0701 125.589 60.0701C127.562 60.0701 129.224 59.3776 130.575 57.9948L132.22 59.5501C131.409 60.4382 130.426 61.1146 129.271 61.5748C128.116 62.0349 126.845 62.2673 125.462 62.2673C123.691 62.2673 122.093 61.8854 120.666 61.1192Z" fill="#828282"/>
<path d="M137.079 61.3539C136.016 60.7787 135.186 59.9827 134.587 58.9703C133.988 57.958 133.689 56.8099 133.689 55.5238C133.689 54.24 133.988 53.0919 134.587 52.0773C135.186 51.065 136.018 50.2735 137.079 49.7052C138.142 49.1369 139.34 48.8539 140.674 48.8539C142.006 48.8539 143.201 49.1369 144.255 49.7052C145.309 50.2735 146.136 51.0627 146.735 52.0773C147.334 53.0896 147.633 54.2377 147.633 55.5238C147.633 56.8076 147.334 57.958 146.735 58.9703C146.136 59.9827 145.309 60.7787 144.255 61.3539C143.201 61.9314 142.006 62.219 140.674 62.219C139.34 62.219 138.142 61.9314 137.079 61.3539ZM142.989 59.5639C143.673 59.1774 144.208 58.6344 144.597 57.9327C144.986 57.2333 145.179 56.4303 145.179 55.5238C145.179 54.6196 144.986 53.8167 144.597 53.1149C144.208 52.4155 143.673 51.8771 142.989 51.4975C142.305 51.1179 141.535 50.9292 140.674 50.9292C139.814 50.9292 139.043 51.1179 138.359 51.4975C137.675 51.8771 137.136 52.4155 136.74 53.1149C136.343 53.8144 136.145 54.6173 136.145 55.5238C136.145 56.4303 136.343 57.2333 136.74 57.9327C137.136 58.6321 137.675 59.1751 138.359 59.5639C139.043 59.9505 139.814 60.1437 140.674 60.1437C141.535 60.1437 142.305 59.9505 142.989 59.5639Z" fill="#828282"/>
<path d="M162.224 50.3011C163.228 51.2651 163.73 52.6778 163.73 54.5368V62.0694H161.3V54.8083C161.3 53.5406 160.986 52.5857 160.364 51.9438C159.739 51.3019 158.846 50.9798 157.681 50.9798C156.365 50.9798 155.328 51.3548 154.567 52.1026C153.808 52.8526 153.428 53.9271 153.428 55.3259V62.0694H150.998V48.9782H153.327V50.9545C153.817 50.2804 154.477 49.7604 155.314 49.3992C156.149 49.038 157.099 48.8562 158.162 48.8562C159.866 48.8562 161.22 49.3371 162.224 50.3011Z" fill="#828282"/>
<path d="M168.919 61.7865C167.908 61.4989 167.113 61.1307 166.541 60.6867L167.552 58.8093C168.141 59.2211 168.86 59.5501 169.702 59.7963C170.546 60.0425 171.397 60.1667 172.257 60.1667C174.384 60.1667 175.447 59.5731 175.447 58.3882C175.447 57.9925 175.303 57.6796 175.016 57.4495C174.728 57.2195 174.37 57.0515 173.941 56.9434C173.509 56.8375 172.899 56.7179 172.106 56.5845C171.027 56.4211 170.145 56.2301 169.461 56.0162C168.778 55.8022 168.191 55.441 167.703 54.9302C167.212 54.4195 166.97 53.7039 166.97 52.7813C166.97 51.5964 167.476 50.6439 168.488 49.9284C169.499 49.2129 170.857 48.8539 172.564 48.8539C173.457 48.8539 174.351 48.9621 175.247 49.176C176.14 49.39 176.876 49.6776 177.449 50.0411L176.411 51.9185C175.315 51.226 174.023 50.8809 172.538 50.8809C171.508 50.8809 170.725 51.0466 170.185 51.3756C169.645 51.7046 169.374 52.1417 169.374 52.6847C169.374 53.1126 169.525 53.4508 169.829 53.697C170.133 53.9432 170.508 54.125 170.956 54.24C171.404 54.355 172.031 54.4862 172.842 54.6357C173.922 54.8175 174.794 55.0107 175.461 55.2155C176.128 55.4226 176.696 55.7723 177.17 56.2647C177.642 56.7593 177.88 57.4495 177.88 58.3399C177.88 59.5248 177.361 60.4681 176.324 61.1676C175.287 61.867 173.872 62.2167 172.085 62.2167C170.984 62.219 169.931 62.074 168.919 61.7865Z" fill="#828282"/>
<path d="M193.418 48.9805V62.0718H191.115V60.0954C190.624 60.7718 189.981 61.2941 189.179 61.6645C188.378 62.0349 187.505 62.2213 186.56 62.2213C184.771 62.2213 183.363 61.7405 182.333 60.7764C181.303 59.8124 180.789 58.3929 180.789 56.5155V48.9828H183.22V56.244C183.22 57.5117 183.531 58.4711 184.156 59.1222C184.78 59.7733 185.674 60.0977 186.838 60.0977C188.121 60.0977 189.132 59.7181 189.875 58.9611C190.617 58.2042 190.987 57.1344 190.987 55.7493V48.9805H193.418Z" fill="#828282"/>
<path d="M199.111 61.1699C198.401 60.4704 198.048 59.4857 198.048 58.218V43.744H200.478V58.0201C200.478 58.7288 200.65 59.2717 200.997 59.6491C201.344 60.0287 201.862 60.2174 202.553 60.2174C202.975 60.2174 203.371 60.1345 203.743 59.9712L203.871 61.9222C203.314 62.1201 202.732 62.219 202.124 62.219C200.825 62.219 199.821 61.8693 199.111 61.1699Z" fill="#828282"/>
<path d="M213.234 61.3056C212.881 61.6024 212.44 61.8279 211.919 61.9843C211.396 62.1408 210.856 62.219 210.299 62.219C208.948 62.219 207.904 61.8647 207.162 61.156C206.419 60.4474 206.049 59.4351 206.049 58.1168V46.1115H208.479V48.9759H212.327V50.9269H208.479V58.0155C208.479 58.7242 208.661 59.2671 209.024 59.6445C209.387 60.0241 209.906 60.2127 210.58 60.2127C211.322 60.2127 211.954 60.008 212.478 59.5961L213.234 61.3056Z" fill="#828282"/>
<path d="M217.865 61.3539C216.801 60.7787 215.972 59.9827 215.373 58.9703C214.774 57.958 214.475 56.8099 214.475 55.5238C214.475 54.24 214.774 53.0919 215.373 52.0773C215.972 51.065 216.804 50.2735 217.865 49.7052C218.928 49.1369 220.125 48.8539 221.46 48.8539C222.792 48.8539 223.987 49.1369 225.041 49.7052C226.095 50.2735 226.922 51.0627 227.521 52.0773C228.12 53.0896 228.419 54.2377 228.419 55.5238C228.419 56.8076 228.12 57.958 227.521 58.9703C226.922 59.9827 226.095 60.7787 225.041 61.3539C223.987 61.9314 222.792 62.219 221.46 62.219C220.128 62.219 218.928 61.9314 217.865 61.3539ZM223.775 59.5639C224.458 59.1774 224.994 58.6344 225.383 57.9327C225.772 57.2333 225.965 56.4303 225.965 55.5238C225.965 54.6196 225.772 53.8167 225.383 53.1149C224.994 52.4155 224.458 51.8771 223.775 51.4975C223.091 51.1179 222.32 50.9292 221.46 50.9292C220.599 50.9292 219.828 51.1179 219.145 51.4975C218.461 51.8771 217.921 52.4155 217.525 53.1149C217.129 53.8144 216.931 54.6173 216.931 55.5238C216.931 56.4303 217.129 57.2333 217.525 57.9327C217.921 58.6321 218.461 59.1751 219.145 59.5639C219.828 59.9505 220.599 60.1437 221.46 60.1437C222.32 60.1437 223.091 59.9505 223.775 59.5639Z" fill="#828282"/>
<path d="M235.987 49.4498C236.814 49.0541 237.818 48.8562 238.999 48.8562V51.1524C238.865 51.1363 238.679 51.1271 238.443 51.1271C237.128 51.1271 236.093 51.509 235.343 52.2751C234.591 53.0413 234.216 54.1318 234.216 55.5468V62.0671H231.786V48.9759H234.115V51.1731C234.537 50.4207 235.159 49.8433 235.987 49.4498Z" fill="#828282"/>
<path d="M254.514 48.9805V62.0717H252.184V59.9965C251.644 60.7212 250.961 61.2734 250.133 61.6507C249.306 62.0303 248.396 62.219 247.401 62.219C246.102 62.219 244.938 61.9383 243.907 61.3792C242.877 60.8201 242.073 60.0333 241.491 59.0209C240.909 58.0086 240.619 56.8444 240.619 55.5261C240.619 54.2101 240.909 53.0482 241.491 52.0428C242.073 51.0373 242.879 50.2551 243.907 49.696C244.935 49.1369 246.1 48.8562 247.401 48.8562C248.363 48.8562 249.249 49.0334 250.058 49.3877C250.867 49.742 251.543 50.2643 252.083 50.9568V48.9805H254.514ZM249.907 59.5639C250.598 59.1774 251.138 58.6344 251.527 57.9327C251.916 57.2333 252.109 56.4303 252.109 55.5238C252.109 54.6196 251.916 53.8166 251.527 53.1149C251.138 52.4155 250.598 51.8771 249.907 51.4975C249.214 51.1179 248.448 50.9292 247.604 50.9292C246.743 50.9292 245.972 51.1179 245.289 51.4975C244.605 51.8771 244.065 52.4155 243.669 53.1149C243.273 53.8143 243.075 54.6173 243.075 55.5238C243.075 56.4303 243.273 57.2333 243.669 57.9327C244.065 58.6321 244.605 59.1751 245.289 59.5639C245.972 59.9504 246.743 60.1437 247.604 60.1437C248.448 60.1437 249.214 59.9504 249.907 59.5639Z" fill="#828282"/>
<path d="M18.8123 22.5587C17.353 22.2366 15.9008 21.8845 14.4557 21.4911C12.0346 20.8331 9.63706 20.0647 7.27724 19.1582L6.32011 18.79C6.32011 18.79 6.21402 18.7417 6.20695 18.7946L5.84154 21.6591C4.07109 35.5257 9.07834 47.4344 26.7687 47.2986L30.477 47.1721L30.5902 47.1675L30.378 37.2582C29.9937 29.8935 25.0855 23.9414 18.8123 22.5587Z" fill="url(#paint0_linear_146_103)"/>
<path d="M11.4853 56.8329C11.2024 57.8844 10.896 58.9312 10.5589 59.9712C9.99307 61.7151 9.34713 63.4361 8.59274 65.1295L8.28627 65.8151C8.28627 65.8151 8.2792 65.8174 8.2627 65.8933L10.4669 66.2361C21.0048 67.8788 30.7482 64.0826 30.5407 51.578L30.4936 48.7642L30.4912 48.6814L22.9992 48.801C17.3672 48.8931 12.6994 52.3097 11.4853 56.8329Z" fill="url(#paint1_linear_146_103)"/>
<defs>
<linearGradient id="paint0_linear_146_103" x1="7.23555" y1="36.5737" x2="28.4023" y2="29.4006" gradientUnits="userSpaceOnUse">
<stop stop-color="#0097C1"/>
<stop offset="0.1849" stop-color="#009EC6"/>
<stop offset="0.4506" stop-color="#00B1D4"/>
<stop offset="0.7636" stop-color="#00D0EA"/>
<stop offset="1" stop-color="#00ECFF"/>
</linearGradient>
<linearGradient id="paint1_linear_146_103" x1="21.871" y1="65.5432" x2="17.4029" y2="49.9183" gradientUnits="userSpaceOnUse">
<stop stop-color="#0097C1"/>
<stop offset="0.1029" stop-color="#0A90BF"/>
<stop offset="0.2764" stop-color="#247BBB"/>
<stop offset="0.4994" stop-color="#4F5BB3"/>
<stop offset="0.7601" stop-color="#8A2EA9"/>
<stop offset="1" stop-color="#C6009F"/>
</linearGradient>
</defs>
</svg>
