<svg width="175" height="83" viewBox="0 0 175 83" fill="none" xmlns="http://www.w3.org/2000/svg">
<g id="Group 78">
<g id="Group">
<path id="Vector" d="M62.1475 4.75H74.8815V46.4977H102.469V56.199H62.1475V4.75Z" fill="#FFFDFD"/>
<path id="Vector_2" d="M146.128 7.03049C149.717 8.54775 152.48 10.7041 154.422 13.4995C156.359 16.2904 157.328 19.6008 157.328 23.4215C157.328 27.2423 156.359 30.4929 154.422 33.3067C152.485 36.1251 149.717 38.2815 146.128 39.7757C142.539 41.27 138.306 42.0195 133.433 42.0195H122.351V56.2035H109.617V4.75H133.433C138.306 4.75 142.539 5.50863 146.128 7.03049ZM141.452 30.0009C143.443 28.4561 144.437 26.2629 144.437 23.4215C144.437 20.5801 143.439 18.3134 141.452 16.7685C139.461 15.2237 136.55 14.4513 132.725 14.4513H122.351V32.3136H132.725C136.55 32.3136 139.456 31.5412 141.452 29.9963V30.0009Z" fill="#FFFDFD"/>
</g>
<g id="Group_2">
<path id="Vector_3" d="M65.2009 78.8105C64.0357 78.2128 63.1261 77.3852 62.4624 76.3369C61.7987 75.2886 61.4692 74.1069 61.4692 72.792C61.4692 71.477 61.7987 70.2954 62.4624 69.2471C63.1212 68.1988 64.0406 67.3712 65.2108 66.7735C66.3809 66.1758 67.6887 65.877 69.1391 65.877C70.27 65.877 71.3025 66.0563 72.2366 66.4103C73.1757 66.7643 73.9722 67.2885 74.6359 67.9827L73.2937 69.2011C72.2071 68.1299 70.8501 67.5965 69.2227 67.5965C68.146 67.5965 67.1774 67.8218 66.3072 68.2724C65.4369 68.723 64.7585 69.3437 64.2717 70.1391C63.78 70.9299 63.5391 71.8173 63.5391 72.7966C63.5391 73.7759 63.785 74.6633 64.2717 75.4541C64.7585 76.2449 65.4369 76.8656 66.3072 77.3208C67.1774 77.7714 68.146 77.9967 69.2227 77.9967C70.8354 77.9967 72.1924 77.4541 73.2937 76.3736L74.6359 77.592C73.9722 78.2863 73.1708 78.8151 72.2268 79.1783C71.2828 79.5369 70.2454 79.7208 69.1146 79.7208C67.6691 79.7208 66.3613 79.422 65.2009 78.8243V78.8105Z" fill="#FFFDFD"/>
<path id="Vector_4" d="M78.603 78.9946C77.7328 78.544 77.0543 77.9233 76.5675 77.1279C76.0808 76.3371 75.835 75.4359 75.835 74.4336C75.835 73.4313 76.0808 72.5301 76.5675 71.7393C77.0543 70.9485 77.7328 70.3278 78.603 69.8864C79.4732 69.4404 80.4467 69.2197 81.5382 69.2197C82.6297 69.2197 83.6032 69.4404 84.4636 69.8864C85.324 70.3324 85.9976 70.9485 86.4893 71.7393C86.976 72.5301 87.2218 73.4313 87.2218 74.4336C87.2218 75.4359 86.976 76.3371 86.4893 77.1279C86.0025 77.9187 85.324 78.544 84.4636 78.9946C83.6032 79.4451 82.6297 79.6704 81.5382 79.6704C80.4467 79.6704 79.4732 79.4451 78.603 78.9946ZM83.4262 77.5922C83.9818 77.2888 84.4194 76.8658 84.7389 76.3187C85.0536 75.7715 85.2159 75.1416 85.2159 74.4336C85.2159 73.7255 85.0585 73.0956 84.7389 72.5485C84.4243 72.0014 83.9867 71.5784 83.4262 71.2841C82.8657 70.9899 82.2364 70.8381 81.5333 70.8381C80.8302 70.8381 80.2009 70.9853 79.6404 71.2841C79.0799 71.583 78.6423 72.0014 78.3178 72.5485C77.9933 73.0956 77.8311 73.7255 77.8311 74.4336C77.8311 75.1416 77.9933 75.7715 78.3178 76.3187C78.6423 76.8658 79.0799 77.2934 79.6404 77.5922C80.196 77.8957 80.8302 78.0474 81.5333 78.0474C82.2364 78.0474 82.8657 77.8957 83.4262 77.5922Z" fill="#FFFDFD"/>
<path id="Vector_5" d="M99.1303 70.3461C99.9514 71.1001 100.359 72.2036 100.359 73.6611V79.5554H98.3781V73.8726C98.3781 72.8795 98.1224 72.1346 97.616 71.6289C97.1047 71.1277 96.377 70.8748 95.4232 70.8748C94.3465 70.8748 93.5008 71.1691 92.8813 71.753C92.2618 72.3415 91.9521 73.1783 91.9521 74.2772V79.5508H89.9707V69.307H91.8734V70.8519C92.2717 70.3231 92.8125 69.9185 93.4959 69.6334C94.1793 69.3484 94.9512 69.2104 95.8215 69.2104C97.2129 69.2104 98.3191 69.5875 99.1402 70.3415L99.1303 70.3461Z" fill="#FFFDFD"/>
<path id="Vector_6" d="M104.597 79.3348C103.771 79.1095 103.122 78.8244 102.655 78.475L103.481 77.0083C103.963 77.3301 104.548 77.5876 105.236 77.7807C105.925 77.9738 106.623 78.0704 107.326 78.0704C109.062 78.0704 109.932 77.606 109.932 76.6773C109.932 76.3692 109.814 76.1255 109.583 75.9416C109.347 75.7623 109.057 75.629 108.703 75.5462C108.354 75.4634 107.852 75.3715 107.203 75.2657C106.323 75.137 105.6 74.9899 105.045 74.8198C104.489 74.6542 104.007 74.3692 103.609 73.9692C103.211 73.5692 103.009 73.0082 103.009 72.2864C103.009 71.3576 103.422 70.6128 104.248 70.0565C105.074 69.4956 106.185 69.2151 107.577 69.2151C108.304 69.2151 109.037 69.2978 109.765 69.468C110.492 69.6335 111.092 69.8634 111.564 70.1438L110.719 71.6105C109.824 71.068 108.767 70.7967 107.557 70.7967C106.716 70.7967 106.077 70.9255 105.635 71.1829C105.192 71.4404 104.976 71.7806 104.976 72.2082C104.976 72.5439 105.099 72.8059 105.35 72.9991C105.6 73.1922 105.905 73.3347 106.269 73.422C106.633 73.514 107.149 73.6151 107.808 73.7301C108.688 73.8726 109.401 74.0244 109.947 74.1853C110.492 74.3462 110.955 74.6221 111.343 75.0083C111.726 75.3945 111.923 75.937 111.923 76.6313C111.923 77.56 111.5 78.2957 110.655 78.8428C109.809 79.3899 108.654 79.6658 107.193 79.6658C106.298 79.6658 105.438 79.5509 104.612 79.3256L104.597 79.3348Z" fill="#FFFDFD"/>
<path id="Vector_7" d="M124.598 69.3118V79.5556H122.72V78.0107C122.322 78.5395 121.796 78.9487 121.137 79.2383C120.483 79.528 119.77 79.6751 118.998 79.6751C117.538 79.6751 116.387 79.2981 115.547 78.5441C114.706 77.79 114.288 76.6774 114.288 75.2107V69.3164H116.269V74.9992C116.269 75.9923 116.525 76.7418 117.032 77.2521C117.543 77.7625 118.271 78.0153 119.224 78.0153C120.272 78.0153 121.098 77.7211 121.702 77.128C122.307 76.5349 122.612 75.6981 122.612 74.6176V69.321H124.593L124.598 69.3118Z" fill="#FFFDFD"/>
<path id="Vector_8" d="M129.25 78.8475C128.669 78.3003 128.379 77.5325 128.379 76.5394V65.2151H130.361V76.3831C130.361 76.9394 130.503 77.3624 130.784 77.6566C131.064 77.9509 131.487 78.1026 132.052 78.1026C132.396 78.1026 132.721 78.0382 133.026 77.9095L133.129 79.436C132.672 79.5923 132.2 79.6659 131.703 79.6659C130.641 79.6659 129.82 79.3946 129.245 78.8429L129.25 78.8475Z" fill="#FFFDFD"/>
<path id="Vector_9" d="M140.779 78.9577C140.489 79.1876 140.13 79.3669 139.702 79.4911C139.275 79.6152 138.832 79.675 138.38 79.675C137.278 79.675 136.423 79.3991 135.818 78.8428C135.214 78.291 134.909 77.4956 134.909 76.4657V67.0725H136.895V69.3162H140.037V70.8427H136.895V76.3876C136.895 76.9439 137.042 77.3669 137.337 77.6612C137.632 77.9554 138.055 78.1071 138.606 78.1071C139.211 78.1071 139.727 77.9462 140.155 77.6244L140.774 78.9577H140.779Z" fill="#FFFDFD"/>
<path id="Vector_10" d="M144.561 78.9946C143.69 78.544 143.012 77.9233 142.525 77.1279C142.033 76.3371 141.792 75.4359 141.792 74.4336C141.792 73.4313 142.038 72.5301 142.525 71.7393C143.012 70.9485 143.69 70.3278 144.561 69.8864C145.431 69.4404 146.404 69.2197 147.496 69.2197C148.587 69.2197 149.561 69.4404 150.421 69.8864C151.282 70.3324 151.955 70.9485 152.447 71.7393C152.934 72.5301 153.179 73.4313 153.179 74.4336C153.179 75.4359 152.934 76.3371 152.447 77.1279C151.96 77.9187 151.282 78.544 150.421 78.9946C149.561 79.4451 148.587 79.6704 147.496 79.6704C146.404 79.6704 145.431 79.4451 144.561 78.9946ZM149.384 77.5922C149.939 77.2888 150.377 76.8658 150.696 76.3187C151.011 75.7715 151.173 75.1416 151.173 74.4336C151.173 73.7255 151.016 73.0956 150.696 72.5485C150.382 72.0014 149.944 71.5784 149.384 71.2841C148.823 70.9899 148.194 70.8381 147.491 70.8381C146.788 70.8381 146.158 70.9853 145.598 71.2841C145.037 71.5784 144.6 72.0014 144.275 72.5485C143.951 73.0956 143.789 73.7255 143.789 74.4336C143.789 75.1416 143.951 75.7715 144.275 76.3187C144.6 76.8658 145.042 77.2934 145.598 77.5922C146.154 77.8957 146.788 78.0474 147.491 78.0474C148.194 78.0474 148.823 77.8957 149.384 77.5922Z" fill="#FFFDFD"/>
<path id="Vector_11" d="M159.354 69.6795C160.028 69.3714 160.849 69.2151 161.812 69.2151V71.0128C161.704 70.999 161.552 70.9944 161.36 70.9944C160.283 70.9944 159.443 71.2933 158.828 71.891C158.213 72.4887 157.909 73.3439 157.909 74.4519V79.5555H155.927V69.3116H157.83V71.0312C158.174 70.4381 158.685 69.9875 159.359 69.6795H159.354Z" fill="#FFFDFD"/>
<path id="Vector_12" d="M174.483 69.3117V79.5555H172.58V77.9325C172.138 78.498 171.582 78.9302 170.908 79.229C170.235 79.5279 169.487 79.675 168.676 79.675C167.614 79.675 166.665 79.4543 165.825 79.0176C164.984 78.5808 164.325 77.9647 163.853 77.1739C163.376 76.383 163.14 75.4727 163.14 74.4382C163.14 73.4037 163.376 72.4979 163.853 71.7117C164.33 70.9255 164.984 70.314 165.825 69.8772C166.665 69.4404 167.614 69.2197 168.676 69.2197C169.463 69.2197 170.186 69.3577 170.844 69.6335C171.503 69.9094 172.059 70.3186 172.496 70.8611V69.3163H174.478L174.483 69.3117ZM170.722 77.5922C171.287 77.2888 171.729 76.8658 172.044 76.3187C172.359 75.7715 172.521 75.1416 172.521 74.4336C172.521 73.7255 172.364 73.0956 172.044 72.5485C171.729 72.0014 171.287 71.5784 170.722 71.2841C170.156 70.9899 169.532 70.8381 168.843 70.8381C168.155 70.8381 167.511 70.9853 166.951 71.2841C166.39 71.5784 165.952 72.0014 165.628 72.5485C165.303 73.0956 165.141 73.7255 165.141 74.4336C165.141 75.1416 165.303 75.7715 165.628 76.3187C165.952 76.8658 166.395 77.2934 166.951 77.5922C167.506 77.8957 168.14 78.0474 168.843 78.0474C169.546 78.0474 170.161 77.8957 170.722 77.5922Z" fill="#FFFDFD"/>
</g>
<g id="Group_3">
<path id="Vector_13" d="M24.0139 6.16623C21.354 5.66048 18.7039 5.09495 16.0637 4.46046C11.6388 3.40298 7.25808 2.14779 2.94129 0.653516L1.19098 0.046611C1.19098 0.046611 0.994317 -0.0315509 0.984484 0.0604043L0.428908 5.05817C-2.25556 29.247 7.29741 49.7852 39.4078 48.9254L46.1337 48.576L46.3402 48.5622L45.5732 31.3298C44.5948 18.5296 35.4548 8.35017 24.0139 6.16623Z" fill="#FFFDFD"/>
<path id="Vector_14" d="M12.1208 66.0428C11.6488 67.8819 11.1326 69.7164 10.5573 71.5371C9.59857 74.59 8.48742 77.6108 7.18943 80.5809L6.66336 81.7855C6.66336 81.7855 6.64861 81.7901 6.62402 81.9235L10.636 82.443C29.8304 84.9304 47.3778 77.9878 46.5174 56.2404L46.3256 51.3483V51.2058L32.7263 51.6748C22.5096 52.0288 14.1612 58.1346 12.1306 66.0474L12.1208 66.0428Z" fill="#FFFDFD"/>
</g>
</g>
</svg>
