<svg width="93" height="93" viewBox="0 0 93 93" fill="none" xmlns="http://www.w3.org/2000/svg">
<g id="&#195;&#173;cono">
<g id="Ellipse 77" filter="url(#filter0_d_351_108)">
<circle cx="46.5" cy="42.5" r="42.5" fill="#C428A2"/>
<circle cx="46.5" cy="42.5" r="42" stroke="#00ECFF"/>
</g>
<path id="Vector" d="M39.8932 37.5962C39.8932 37.1446 40.0726 36.7115 40.3919 36.3922C40.7112 36.0728 41.1443 35.8934 41.5959 35.8934H55.2177C55.6693 35.8934 56.1024 36.0728 56.4217 36.3922C56.741 36.7115 56.9204 37.1446 56.9204 37.5962C56.9204 38.0478 56.741 38.4808 56.4217 38.8002C56.1024 39.1195 55.6693 39.2989 55.2177 39.2989H41.5959C41.1443 39.2989 40.7112 39.1195 40.3919 38.8002C40.0726 38.4808 39.8932 38.0478 39.8932 37.5962ZM41.5959 46.1098H55.2177C55.6693 46.1098 56.1024 45.9304 56.4217 45.6111C56.741 45.2917 56.9204 44.8586 56.9204 44.4071C56.9204 43.9555 56.741 43.5224 56.4217 43.2031C56.1024 42.8837 55.6693 42.7043 55.2177 42.7043H41.5959C41.1443 42.7043 40.7112 42.8837 40.3919 43.2031C40.0726 43.5224 39.8932 43.9555 39.8932 44.4071C39.8932 44.8586 40.0726 45.2917 40.3919 45.6111C40.7112 45.9304 41.1443 46.1098 41.5959 46.1098ZM48.4068 49.5152H41.5959C41.1443 49.5152 40.7112 49.6946 40.3919 50.0139C40.0726 50.3333 39.8932 50.7664 39.8932 51.218C39.8932 51.6695 40.0726 52.1026 40.3919 52.422C40.7112 52.7413 41.1443 52.9207 41.5959 52.9207H48.4068C48.8584 52.9207 49.2915 52.7413 49.6108 52.422C49.9301 52.1026 50.1095 51.6695 50.1095 51.218C50.1095 50.7664 49.9301 50.3333 49.6108 50.0139C49.2915 49.6946 48.8584 49.5152 48.4068 49.5152ZM68.8395 27.3798V50.5135C68.8409 50.9608 68.7534 51.404 68.5821 51.8173C68.4107 52.2305 68.1589 52.6056 67.8413 52.9207L56.9204 63.8415C56.6054 64.1591 56.2303 64.4109 55.817 64.5823C55.4038 64.7537 54.9606 64.8412 54.5132 64.8397H31.3796C30.4764 64.8397 29.6102 64.481 28.9716 63.8423C28.3329 63.2037 27.9741 62.3375 27.9741 61.4343V27.3798C27.9741 26.4766 28.3329 25.6104 28.9716 24.9718C29.6102 24.3332 30.4764 23.9744 31.3796 23.9744H65.4341C66.3372 23.9744 67.2034 24.3332 67.8421 24.9718C68.4807 25.6104 68.8395 26.4766 68.8395 27.3798ZM31.3796 61.4343H53.515V51.218C53.515 50.7664 53.6944 50.3333 54.0137 50.0139C54.333 49.6946 54.7661 49.5152 55.2177 49.5152H65.4341V27.3798H31.3796V61.4343ZM56.9204 52.9207V59.0292L63.0268 52.9207H56.9204Z" fill="#F9F4F4"/>
</g>
<defs>
<filter id="filter0_d_351_108" x="0" y="0" width="93" height="93" filterUnits="userSpaceOnUse" color-interpolation-filters="sRGB">
<feFlood flood-opacity="0" result="BackgroundImageFix"/>
<feColorMatrix in="SourceAlpha" type="matrix" values="0 0 0 0 0 0 0 0 0 0 0 0 0 0 0 0 0 0 127 0" result="hardAlpha"/>
<feOffset dy="4"/>
<feGaussianBlur stdDeviation="2"/>
<feComposite in2="hardAlpha" operator="out"/>
<feColorMatrix type="matrix" values="0 0 0 0 0 0 0 0 0 0 0 0 0 0 0 0 0 0 0.25 0"/>
<feBlend mode="normal" in2="BackgroundImageFix" result="effect1_dropShadow_351_108"/>
<feBlend mode="normal" in="SourceGraphic" in2="effect1_dropShadow_351_108" result="shape"/>
</filter>
</defs>
</svg>
